<svg xmlns="http://www.w3.org/2000/svg" xmlns:xlink="http://www.w3.org/1999/xlink"  zoomAndPan="magnify" viewBox="0 0 37.5 37.499999" preserveAspectRatio="xMidYMid meet" version="1.0"><defs><clipPath id="id1"><path d="M 0 0 L 29 0 L 29 37.007812 L 0 37.007812 Z M 0 0 " clip-rule="nonzero"/></clipPath><clipPath id="id2"><path d="M 4 0 L 37.007812 0 L 37.007812 31 L 4 31 Z M 4 0 " clip-rule="nonzero"/></clipPath></defs><g clip-path="url(#id1)"><path fill="rgb(82.749939%, 92.939758%, 91.758728%)" d="M 28.789062 19.171875 C 28.683594 19.414062 28.578125 19.65625 28.46875 19.894531 C 28.097656 19.929688 27.671875 19.976562 27.269531 20.03125 C 26.214844 20.175781 24.886719 20.597656 22.246094 21.824219 C 19.605469 23.046875 17.363281 25.886719 15.582031 28.464844 C 13.800781 31.042969 12.039062 36.785156 10.609375 37.003906 C 9.179688 37.222656 8.011719 34.953125 7.464844 34.035156 C 6.914062 33.117188 5.550781 30.253906 4.933594 28.8125 C 4.316406 27.371094 2.5 22.230469 1.53125 18.851562 C 0.5625 15.472656 0.183594 12.210938 0.09375 7.988281 C 0.00390625 3.765625 2.351562 1.433594 4.347656 0.648438 C 4.371094 0.636719 4.398438 0.628906 4.425781 0.617188 C 5.460938 0.261719 7.261719 0.535156 9.375 1.34375 C 11.453125 2.144531 13.835938 3.464844 16.074219 5.21875 C 16.074219 5.21875 12.214844 3.472656 9.53125 3.539062 C 6.847656 3.605469 4.976562 5.089844 4.007812 7.011719 C 3.042969 8.933594 2.820312 12.910156 3.171875 16.144531 C 3.527344 19.375 4.933594 24.355469 5.8125 27.066406 C 6.695312 29.773438 8.253906 32.242188 9.246094 32.898438 C 10.234375 33.554688 10.828125 32.570312 12.117188 29.804688 C 13.410156 27.035156 16.78125 23.890625 18.484375 22.523438 C 20.058594 21.253906 25.035156 19.476562 28.789062 19.171875 " fill-opacity="1" fill-rule="nonzero"/></g><g clip-path="url(#id2)"><path fill="rgb(82.749939%, 92.939758%, 91.758728%)" d="M 4.230469 0.09375 C 5.667969 -0.515625 9.128906 -0.226562 12.441406 1.636719 C 15.757812 3.503906 18.484375 5.105469 21.769531 4.203125 C 25.054688 3.296875 28.925781 2.074219 31.300781 3.355469 C 33.679688 4.636719 33.648438 8.074219 32.710938 11.570312 C 31.769531 15.066406 27.957031 23.917969 26.023438 26.6875 C 24.085938 29.453125 23.472656 30.589844 23.472656 30.589844 C 36.171875 17.65625 37.492188 7.230469 37.007812 5.21875 C 36.523438 3.210938 35.964844 2.425781 34.96875 1.785156 C 33.972656 1.144531 31.417969 -0.136719 27.898438 0.851562 C 24.378906 1.84375 23.03125 2.542969 22.09375 2.863281 C 21.152344 3.183594 18.761719 3.386719 17.472656 3.035156 C 16.183594 2.6875 11.914062 0.0351562 9.597656 -0.402344 C 6.144531 -1.027344 4.230469 0.09375 4.230469 0.09375 " fill-opacity="1" fill-rule="nonzero"/></g></svg>