<svg xmlns="http://www.w3.org/2000/svg" xmlns:xlink="http://www.w3.org/1999/xlink"  zoomAndPan="magnify" viewBox="0 0 150 74.999997"  preserveAspectRatio="xMidYMid meet" version="1.0"><defs><g/><clipPath id="id1"><path d="M 55 41 L 64 41 L 64 41.933594 L 55 41.933594 Z M 55 41 " clip-rule="nonzero"/></clipPath><clipPath id="id2"><path d="M 65 41 L 74 41 L 74 41.933594 L 65 41.933594 Z M 65 41 " clip-rule="nonzero"/></clipPath><clipPath id="id3"><path d="M 75 41 L 85 41 L 85 41.933594 L 75 41.933594 Z M 75 41 " clip-rule="nonzero"/></clipPath><clipPath id="id4"><path d="M 86.464844 41.160156 L 94.839844 41.160156 L 94.839844 41.414062 L 86.464844 41.414062 Z M 86.464844 41.160156 " clip-rule="nonzero"/></clipPath><clipPath id="id5"><path d="M 63.765625 40.433594 L 65.222656 40.433594 L 65.222656 41.933594 L 63.765625 41.933594 Z M 63.765625 40.433594 " clip-rule="nonzero"/></clipPath><clipPath id="id6"><path d="M 74.207031 40.433594 L 75.664062 40.433594 L 75.664062 41.933594 L 74.207031 41.933594 Z M 74.207031 40.433594 " clip-rule="nonzero"/></clipPath><clipPath id="id7"><path d="M 84.679688 40.433594 L 86.105469 40.433594 L 86.105469 41.933594 L 84.679688 41.933594 Z M 84.679688 40.433594 " clip-rule="nonzero"/></clipPath></defs><g clip-path="url(#id1)"><path fill="rgb(13.729858%, 12.159729%, 12.159729%)" d="M 63.320312 41.175781 L 55.148438 41.175781 C 55.015625 41.175781 55.015625 41.394531 55.152344 41.394531 L 63.320312 41.394531 C 63.453125 41.394531 63.453125 41.175781 63.320312 41.175781 " fill-opacity="1" fill-rule="nonzero"/></g><g clip-path="url(#id2)"><path fill="rgb(13.729858%, 12.159729%, 12.159729%)" d="M 73.792969 41.175781 L 65.625 41.175781 C 65.488281 41.175781 65.488281 41.394531 65.625 41.394531 L 73.792969 41.394531 C 73.925781 41.394531 73.925781 41.175781 73.792969 41.175781 " fill-opacity="1" fill-rule="nonzero"/></g><g clip-path="url(#id3)"><path fill="rgb(13.729858%, 12.159729%, 12.159729%)" d="M 84.265625 41.175781 L 76.097656 41.175781 C 75.960938 41.175781 75.960938 41.394531 76.097656 41.394531 L 84.265625 41.394531 C 84.402344 41.394531 84.402344 41.175781 84.265625 41.175781 " fill-opacity="1" fill-rule="nonzero"/></g><g clip-path="url(#id4)"><path fill="rgb(13.729858%, 12.159729%, 12.159729%)" d="M 94.738281 41.175781 L 86.570312 41.175781 C 86.433594 41.175781 86.433594 41.394531 86.570312 41.394531 L 94.738281 41.394531 C 94.875 41.394531 94.875 41.175781 94.738281 41.175781 " fill-opacity="1" fill-rule="nonzero"/></g><g clip-path="url(#id5)"><path fill="rgb(13.729858%, 12.159729%, 12.159729%)" d="M 64.996094 40.648438 C 64.746094 40.398438 64.351562 40.355469 64.074219 40.582031 C 63.785156 40.816406 63.691406 41.265625 63.902344 41.59375 C 63.9375 41.652344 63.980469 41.699219 64.027344 41.742188 C 64.046875 41.761719 64.066406 41.777344 64.089844 41.796875 C 64.382812 42.027344 64.820312 41.964844 65.046875 41.664062 C 65.269531 41.363281 65.257812 40.914062 64.996094 40.648438 " fill-opacity="1" fill-rule="nonzero"/></g><g clip-path="url(#id6)"><path fill="rgb(13.729858%, 12.159729%, 12.159729%)" d="M 75.441406 40.648438 C 75.195312 40.398438 74.796875 40.355469 74.523438 40.582031 C 74.234375 40.816406 74.140625 41.265625 74.347656 41.59375 C 74.386719 41.652344 74.429688 41.699219 74.476562 41.742188 C 74.496094 41.761719 74.515625 41.777344 74.535156 41.796875 C 74.832031 42.027344 75.265625 41.964844 75.492188 41.664062 C 75.71875 41.363281 75.707031 40.914062 75.441406 40.648438 " fill-opacity="1" fill-rule="nonzero"/></g><g clip-path="url(#id7)"><path fill="rgb(13.729858%, 12.159729%, 12.159729%)" d="M 85.890625 40.648438 C 85.644531 40.398438 85.246094 40.355469 84.96875 40.582031 C 84.683594 40.816406 84.589844 41.265625 84.796875 41.59375 C 84.832031 41.652344 84.878906 41.699219 84.925781 41.742188 C 84.945312 41.761719 84.964844 41.777344 84.984375 41.796875 C 85.277344 42.027344 85.714844 41.964844 85.941406 41.664062 C 86.167969 41.363281 86.15625 40.914062 85.890625 40.648438 " fill-opacity="1" fill-rule="nonzero"/></g><g fill="rgb(3.529358%, 19.999695%, 24.708557%)" fill-opacity="1"><g transform="translate(24.890626, 32.022048)"><g><path d="M 4.96875 -9.671875 C 4.96875 -9.234375 5.113281 -8.863281 5.40625 -8.5625 C 5.695312 -8.257812 6.191406 -8.003906 6.890625 -7.796875 C 6.929688 -7.773438 6.9375 -7.734375 6.90625 -7.671875 C 6.875 -7.617188 6.828125 -7.5625 6.765625 -7.5 C 6.703125 -7.4375 6.628906 -7.378906 6.546875 -7.328125 C 6.472656 -7.285156 6.410156 -7.257812 6.359375 -7.25 C 4.972656 -7.3125 3.898438 -7.007812 3.140625 -6.34375 C 2.378906 -5.6875 2 -4.691406 2 -3.359375 C 2 -2.929688 2.0625 -2.53125 2.1875 -2.15625 C 2.320312 -1.789062 2.507812 -1.472656 2.75 -1.203125 C 2.988281 -0.929688 3.273438 -0.71875 3.609375 -0.5625 C 3.953125 -0.40625 4.335938 -0.328125 4.765625 -0.328125 C 5.773438 -0.328125 6.597656 -0.5625 7.234375 -1.03125 C 7.878906 -1.5 8.34375 -2.257812 8.625 -3.3125 C 8.664062 -3.375 8.707031 -3.390625 8.75 -3.359375 C 8.789062 -3.335938 8.816406 -3.289062 8.828125 -3.21875 C 8.679688 -2.53125 8.503906 -1.957031 8.296875 -1.5 C 8.097656 -1.039062 7.914062 -0.773438 7.75 -0.703125 C 7.3125 -0.503906 6.785156 -0.335938 6.171875 -0.203125 C 5.566406 -0.0664062 4.953125 0 4.328125 0 C 3.804688 0 3.34375 -0.078125 2.9375 -0.234375 C 2.539062 -0.398438 2.207031 -0.617188 1.9375 -0.890625 C 1.664062 -1.160156 1.457031 -1.46875 1.3125 -1.8125 C 1.175781 -2.164062 1.109375 -2.535156 1.109375 -2.921875 C 1.109375 -3.515625 1.210938 -4.070312 1.421875 -4.59375 C 1.640625 -5.113281 1.941406 -5.578125 2.328125 -5.984375 C 2.722656 -6.390625 3.1875 -6.734375 3.71875 -7.015625 C 4.257812 -7.304688 4.847656 -7.503906 5.484375 -7.609375 C 5.085938 -7.828125 4.78125 -8.078125 4.5625 -8.359375 C 4.34375 -8.640625 4.234375 -8.945312 4.234375 -9.28125 C 4.234375 -9.625 4.320312 -9.953125 4.5 -10.265625 C 4.675781 -10.578125 4.921875 -10.851562 5.234375 -11.09375 C 5.554688 -11.332031 5.925781 -11.523438 6.34375 -11.671875 C 6.769531 -11.828125 7.238281 -11.90625 7.75 -11.90625 C 8.039062 -11.90625 8.328125 -11.875 8.609375 -11.8125 C 8.890625 -11.757812 9.140625 -11.6875 9.359375 -11.59375 C 9.585938 -11.5 9.765625 -11.394531 9.890625 -11.28125 C 10.023438 -11.164062 10.09375 -11.046875 10.09375 -10.921875 C 10.09375 -10.828125 10.070312 -10.710938 10.03125 -10.578125 C 9.988281 -10.453125 9.9375 -10.320312 9.875 -10.1875 C 9.820312 -10.050781 9.757812 -9.921875 9.6875 -9.796875 C 9.625 -9.679688 9.570312 -9.601562 9.53125 -9.5625 C 9.507812 -9.53125 9.476562 -9.523438 9.4375 -9.546875 C 9.394531 -9.566406 9.378906 -9.601562 9.390625 -9.65625 C 9.460938 -9.789062 9.515625 -9.9375 9.546875 -10.09375 C 9.585938 -10.257812 9.5625 -10.425781 9.46875 -10.59375 C 9.332031 -10.8125 9.070312 -11.03125 8.6875 -11.25 C 8.300781 -11.476562 7.863281 -11.59375 7.375 -11.59375 C 6.96875 -11.59375 6.613281 -11.535156 6.3125 -11.421875 C 6.019531 -11.304688 5.769531 -11.15625 5.5625 -10.96875 C 5.363281 -10.789062 5.210938 -10.585938 5.109375 -10.359375 C 5.015625 -10.128906 4.96875 -9.898438 4.96875 -9.671875 Z M 4.96875 -9.671875 "/></g></g></g><g fill="rgb(3.529358%, 19.999695%, 24.708557%)" fill-opacity="1"><g transform="translate(34.01421, 32.022048)"><g><path d="M 8.171875 -13.734375 C 8.492188 -13.734375 8.695312 -13.582031 8.78125 -13.28125 C 8.875 -12.988281 8.835938 -12.675781 8.671875 -12.34375 C 8.640625 -12.320312 8.601562 -12.320312 8.5625 -12.34375 C 8.53125 -12.375 8.507812 -12.40625 8.5 -12.4375 C 8.53125 -12.582031 8.476562 -12.703125 8.34375 -12.796875 C 8.21875 -12.898438 8.019531 -12.953125 7.75 -12.953125 C 7.21875 -12.953125 6.691406 -12.726562 6.171875 -12.28125 C 5.648438 -11.84375 5.148438 -11.269531 4.671875 -10.5625 C 4.191406 -9.851562 3.742188 -9.0625 3.328125 -8.1875 C 2.921875 -7.3125 2.566406 -6.4375 2.265625 -5.5625 C 1.960938 -4.695312 1.722656 -3.878906 1.546875 -3.109375 C 1.378906 -2.335938 1.296875 -1.710938 1.296875 -1.234375 C 1.296875 -0.867188 1.398438 -0.6875 1.609375 -0.6875 C 1.753906 -0.6875 1.894531 -0.742188 2.03125 -0.859375 C 2.175781 -0.984375 2.34375 -1.171875 2.53125 -1.421875 C 2.570312 -1.441406 2.609375 -1.4375 2.640625 -1.40625 C 2.671875 -1.382812 2.675781 -1.347656 2.65625 -1.296875 C 2.414062 -0.910156 2.144531 -0.597656 1.84375 -0.359375 C 1.550781 -0.117188 1.300781 0 1.09375 0 C 0.925781 0 0.789062 -0.0625 0.6875 -0.1875 C 0.59375 -0.320312 0.546875 -0.5 0.546875 -0.71875 C 0.546875 -1.0625 0.609375 -1.507812 0.734375 -2.0625 C 0.859375 -2.613281 1.03125 -3.226562 1.25 -3.90625 C 1.476562 -4.582031 1.75 -5.289062 2.0625 -6.03125 C 2.375 -6.78125 2.710938 -7.515625 3.078125 -8.234375 C 3.453125 -8.960938 3.84375 -9.660156 4.25 -10.328125 C 4.664062 -10.992188 5.09375 -11.578125 5.53125 -12.078125 C 5.96875 -12.585938 6.40625 -12.988281 6.84375 -13.28125 C 7.289062 -13.582031 7.734375 -13.734375 8.171875 -13.734375 Z M 8.171875 -13.734375 "/></g></g></g><g fill="rgb(3.529358%, 19.999695%, 24.708557%)" fill-opacity="1"><g transform="translate(36.489029, 32.022048)"><g><path d="M 6.578125 -3.875 C 6.578125 -4.132812 6.484375 -4.265625 6.296875 -4.265625 C 6.117188 -4.265625 5.914062 -4.171875 5.6875 -3.984375 C 5.46875 -3.804688 5.238281 -3.546875 5 -3.203125 C 4.757812 -2.859375 4.519531 -2.4375 4.28125 -1.9375 C 4.039062 -1.4375 3.8125 -0.867188 3.59375 -0.234375 C 3.5625 -0.160156 3.492188 -0.101562 3.390625 -0.0625 C 3.285156 -0.0195312 3.1875 0 3.09375 0 C 2.9375 0 2.878906 -0.0546875 2.921875 -0.171875 C 2.992188 -0.390625 3.09375 -0.664062 3.21875 -1 C 3.351562 -1.332031 3.476562 -1.671875 3.59375 -2.015625 C 3.707031 -2.367188 3.804688 -2.695312 3.890625 -3 C 3.984375 -3.3125 4.03125 -3.554688 4.03125 -3.734375 C 4.03125 -4.078125 3.925781 -4.25 3.71875 -4.25 C 3.394531 -4.25 2.984375 -3.90625 2.484375 -3.21875 C 1.992188 -2.53125 1.53125 -1.535156 1.09375 -0.234375 C 1.0625 -0.160156 1.003906 -0.101562 0.921875 -0.0625 C 0.835938 -0.0195312 0.742188 0 0.640625 0 C 0.578125 0 0.523438 -0.0078125 0.484375 -0.03125 C 0.453125 -0.0625 0.453125 -0.109375 0.484375 -0.171875 C 0.578125 -0.441406 0.679688 -0.738281 0.796875 -1.0625 C 0.910156 -1.382812 1.019531 -1.710938 1.125 -2.046875 C 1.238281 -2.378906 1.34375 -2.707031 1.4375 -3.03125 C 1.53125 -3.351562 1.601562 -3.65625 1.65625 -3.9375 C 1.71875 -4.15625 1.691406 -4.265625 1.578125 -4.265625 C 1.472656 -4.265625 1.351562 -4.195312 1.21875 -4.0625 C 1.082031 -3.925781 0.945312 -3.769531 0.8125 -3.59375 C 0.78125 -3.5625 0.742188 -3.5625 0.703125 -3.59375 C 0.660156 -3.625 0.65625 -3.660156 0.6875 -3.703125 C 0.875 -3.953125 1.078125 -4.1875 1.296875 -4.40625 C 1.523438 -4.625 1.757812 -4.734375 2 -4.734375 C 2.15625 -4.734375 2.253906 -4.671875 2.296875 -4.546875 C 2.335938 -4.421875 2.34375 -4.273438 2.3125 -4.109375 C 2.25 -3.835938 2.1875 -3.585938 2.125 -3.359375 C 2.070312 -3.128906 2.003906 -2.894531 1.921875 -2.65625 C 2.242188 -3.28125 2.597656 -3.78125 2.984375 -4.15625 C 3.367188 -4.539062 3.753906 -4.734375 4.140625 -4.734375 C 4.285156 -4.734375 4.40625 -4.675781 4.5 -4.5625 C 4.59375 -4.457031 4.640625 -4.304688 4.640625 -4.109375 C 4.640625 -3.847656 4.613281 -3.585938 4.5625 -3.328125 C 4.507812 -3.066406 4.4375 -2.800781 4.34375 -2.53125 C 4.707031 -3.238281 5.101562 -3.78125 5.53125 -4.15625 C 5.957031 -4.539062 6.378906 -4.734375 6.796875 -4.734375 C 6.929688 -4.734375 7.039062 -4.679688 7.125 -4.578125 C 7.21875 -4.484375 7.265625 -4.359375 7.265625 -4.203125 C 7.265625 -3.972656 7.21875 -3.722656 7.125 -3.453125 C 7.03125 -3.191406 6.925781 -2.921875 6.8125 -2.640625 C 6.707031 -2.359375 6.609375 -2.078125 6.515625 -1.796875 C 6.421875 -1.523438 6.375 -1.265625 6.375 -1.015625 C 6.375 -0.703125 6.46875 -0.546875 6.65625 -0.546875 C 6.851562 -0.546875 7.125 -0.753906 7.46875 -1.171875 C 7.488281 -1.191406 7.515625 -1.179688 7.546875 -1.140625 C 7.578125 -1.109375 7.582031 -1.066406 7.5625 -1.015625 C 7.488281 -0.921875 7.394531 -0.8125 7.28125 -0.6875 C 7.164062 -0.570312 7.050781 -0.460938 6.9375 -0.359375 C 6.820312 -0.253906 6.695312 -0.164062 6.5625 -0.09375 C 6.425781 -0.03125 6.296875 0 6.171875 0 C 5.890625 0 5.75 -0.234375 5.75 -0.703125 C 5.75 -0.992188 5.789062 -1.289062 5.875 -1.59375 C 5.957031 -1.894531 6.050781 -2.1875 6.15625 -2.46875 C 6.269531 -2.75 6.367188 -3.007812 6.453125 -3.25 C 6.535156 -3.5 6.578125 -3.707031 6.578125 -3.875 Z M 6.578125 -3.875 "/></g></g></g><g fill="rgb(3.529358%, 19.999695%, 24.708557%)" fill-opacity="1"><g transform="translate(44.116641, 32.022048)"><g><path d="M 4.984375 -1.171875 C 5.015625 -1.191406 5.046875 -1.1875 5.078125 -1.15625 C 5.117188 -1.132812 5.132812 -1.097656 5.125 -1.046875 C 4.863281 -0.691406 4.601562 -0.425781 4.34375 -0.25 C 4.09375 -0.0820312 3.882812 0 3.71875 0 C 3.601562 0 3.507812 -0.0507812 3.4375 -0.15625 C 3.375 -0.269531 3.332031 -0.421875 3.3125 -0.609375 C 3.300781 -0.804688 3.304688 -1.023438 3.328125 -1.265625 C 3.359375 -1.503906 3.414062 -1.753906 3.5 -2.015625 C 3.164062 -1.492188 2.8125 -1.046875 2.4375 -0.671875 C 2.070312 -0.296875 1.71875 -0.0703125 1.375 0 C 1.144531 0 0.953125 -0.101562 0.796875 -0.3125 C 0.648438 -0.53125 0.578125 -0.867188 0.578125 -1.328125 C 0.578125 -1.734375 0.660156 -2.132812 0.828125 -2.53125 C 0.992188 -2.9375 1.21875 -3.300781 1.5 -3.625 C 1.78125 -3.957031 2.101562 -4.222656 2.46875 -4.421875 C 2.84375 -4.617188 3.234375 -4.71875 3.640625 -4.71875 C 3.859375 -4.71875 4.046875 -4.691406 4.203125 -4.640625 C 4.367188 -4.585938 4.519531 -4.515625 4.65625 -4.421875 C 4.726562 -4.484375 4.828125 -4.539062 4.953125 -4.59375 C 5.085938 -4.644531 5.210938 -4.671875 5.328125 -4.671875 C 5.390625 -4.671875 5.40625 -4.640625 5.375 -4.578125 C 5.09375 -4.234375 4.847656 -3.851562 4.640625 -3.4375 C 4.441406 -3.019531 4.285156 -2.613281 4.171875 -2.21875 C 4.066406 -1.820312 4 -1.472656 3.96875 -1.171875 C 3.9375 -0.867188 3.957031 -0.660156 4.03125 -0.546875 C 4.09375 -0.460938 4.203125 -0.460938 4.359375 -0.546875 C 4.523438 -0.628906 4.734375 -0.835938 4.984375 -1.171875 Z M 1.78125 -0.625 C 1.914062 -0.625 2.085938 -0.71875 2.296875 -0.90625 C 2.515625 -1.101562 2.738281 -1.351562 2.96875 -1.65625 C 3.207031 -1.96875 3.441406 -2.316406 3.671875 -2.703125 C 3.898438 -3.097656 4.097656 -3.488281 4.265625 -3.875 C 4.222656 -4.039062 4.109375 -4.171875 3.921875 -4.265625 C 3.742188 -4.367188 3.539062 -4.421875 3.3125 -4.421875 C 3.039062 -4.421875 2.785156 -4.347656 2.546875 -4.203125 C 2.304688 -4.066406 2.09375 -3.867188 1.90625 -3.609375 C 1.71875 -3.359375 1.566406 -3.0625 1.453125 -2.71875 C 1.347656 -2.375 1.296875 -1.992188 1.296875 -1.578125 C 1.296875 -1.304688 1.34375 -1.078125 1.4375 -0.890625 C 1.53125 -0.710938 1.644531 -0.625 1.78125 -0.625 Z M 1.78125 -0.625 "/></g></g></g><g fill="rgb(3.529358%, 19.999695%, 24.708557%)" fill-opacity="1"><g transform="translate(49.546462, 32.022048)"><g/></g></g><g fill="rgb(3.529358%, 19.999695%, 24.708557%)" fill-opacity="1"><g transform="translate(52.316779, 32.022048)"><g><path d="M 15.390625 -11.25 C 15.441406 -11.21875 15.453125 -11.164062 15.421875 -11.09375 C 15.390625 -11.03125 15.335938 -10.96875 15.265625 -10.90625 C 15.191406 -10.84375 15.101562 -10.785156 15 -10.734375 C 14.90625 -10.691406 14.816406 -10.671875 14.734375 -10.671875 C 14.429688 -10.691406 14.128906 -10.722656 13.828125 -10.765625 C 13.523438 -10.804688 13.226562 -10.851562 12.9375 -10.90625 C 12.6875 -10.832031 12.46875 -10.722656 12.28125 -10.578125 C 12.09375 -10.441406 11.914062 -10.253906 11.75 -10.015625 C 11.59375 -9.773438 11.441406 -9.46875 11.296875 -9.09375 C 11.148438 -8.726562 11 -8.269531 10.84375 -7.71875 C 10.757812 -7.4375 10.679688 -7.160156 10.609375 -6.890625 C 10.535156 -6.617188 10.445312 -6.351562 10.34375 -6.09375 C 10.65625 -6.113281 10.96875 -6.125 11.28125 -6.125 C 11.59375 -6.125 11.914062 -6.125 12.25 -6.125 C 12.3125 -6.09375 12.332031 -6.054688 12.3125 -6.015625 C 12.300781 -5.984375 12.242188 -5.957031 12.140625 -5.9375 C 11.816406 -5.9375 11.5 -5.929688 11.1875 -5.921875 C 10.875 -5.921875 10.570312 -5.910156 10.28125 -5.890625 C 9.550781 -3.859375 8.632812 -2.367188 7.53125 -1.421875 C 6.425781 -0.472656 5.113281 0 3.59375 0 C 2.695312 0 2.023438 -0.222656 1.578125 -0.671875 C 1.140625 -1.117188 0.921875 -1.710938 0.921875 -2.453125 C 0.921875 -2.816406 1.015625 -3.175781 1.203125 -3.53125 C 1.398438 -3.882812 1.675781 -4.1875 2.03125 -4.4375 C 2.09375 -4.4375 2.132812 -4.410156 2.15625 -4.359375 C 2.175781 -4.304688 2.171875 -4.265625 2.140625 -4.234375 C 1.921875 -4.054688 1.757812 -3.863281 1.65625 -3.65625 C 1.550781 -3.457031 1.5 -3.1875 1.5 -2.84375 C 1.5 -2.519531 1.550781 -2.222656 1.65625 -1.953125 C 1.769531 -1.679688 1.941406 -1.441406 2.171875 -1.234375 C 2.410156 -1.035156 2.710938 -0.878906 3.078125 -0.765625 C 3.453125 -0.660156 3.898438 -0.609375 4.421875 -0.609375 C 5.035156 -0.609375 5.585938 -0.695312 6.078125 -0.875 C 6.578125 -1.050781 7.03125 -1.347656 7.4375 -1.765625 C 7.851562 -2.179688 8.234375 -2.722656 8.578125 -3.390625 C 8.929688 -4.066406 9.269531 -4.890625 9.59375 -5.859375 C 8.976562 -5.835938 8.375 -5.800781 7.78125 -5.75 C 7.195312 -5.695312 6.613281 -5.628906 6.03125 -5.546875 C 5.988281 -5.554688 5.992188 -5.582031 6.046875 -5.625 C 6.097656 -5.664062 6.164062 -5.707031 6.25 -5.75 C 6.34375 -5.800781 6.441406 -5.847656 6.546875 -5.890625 C 6.648438 -5.929688 6.734375 -5.957031 6.796875 -5.96875 C 7.304688 -6.007812 7.796875 -6.035156 8.265625 -6.046875 C 8.734375 -6.066406 9.203125 -6.082031 9.671875 -6.09375 C 9.734375 -6.289062 9.789062 -6.492188 9.84375 -6.703125 C 9.90625 -6.921875 9.96875 -7.140625 10.03125 -7.359375 C 10.1875 -7.890625 10.335938 -8.351562 10.484375 -8.75 C 10.640625 -9.15625 10.816406 -9.5 11.015625 -9.78125 C 11.210938 -10.0625 11.429688 -10.296875 11.671875 -10.484375 C 11.910156 -10.679688 12.191406 -10.84375 12.515625 -10.96875 C 11.847656 -11.0625 11.207031 -11.144531 10.59375 -11.21875 C 9.976562 -11.300781 9.390625 -11.34375 8.828125 -11.34375 C 7.910156 -11.34375 7.132812 -11.144531 6.5 -10.75 C 5.875 -10.363281 5.421875 -9.742188 5.140625 -8.890625 C 5.097656 -8.867188 5.054688 -8.863281 5.015625 -8.875 C 4.984375 -8.894531 4.96875 -8.9375 4.96875 -9 C 5.238281 -9.875 5.769531 -10.578125 6.5625 -11.109375 C 7.363281 -11.640625 8.347656 -11.90625 9.515625 -11.90625 C 9.972656 -11.90625 10.429688 -11.878906 10.890625 -11.828125 C 11.359375 -11.773438 11.832031 -11.710938 12.3125 -11.640625 C 12.789062 -11.578125 13.285156 -11.507812 13.796875 -11.4375 C 14.304688 -11.363281 14.835938 -11.300781 15.390625 -11.25 Z M 15.390625 -11.25 "/></g></g></g><g fill="rgb(3.529358%, 19.999695%, 24.708557%)" fill-opacity="1"><g transform="translate(63.87824, 32.022048)"><g><path d="M 4.984375 -1.171875 C 5.015625 -1.191406 5.046875 -1.1875 5.078125 -1.15625 C 5.117188 -1.132812 5.132812 -1.097656 5.125 -1.046875 C 4.863281 -0.691406 4.601562 -0.425781 4.34375 -0.25 C 4.09375 -0.0820312 3.882812 0 3.71875 0 C 3.601562 0 3.507812 -0.0507812 3.4375 -0.15625 C 3.375 -0.269531 3.332031 -0.421875 3.3125 -0.609375 C 3.300781 -0.804688 3.304688 -1.023438 3.328125 -1.265625 C 3.359375 -1.503906 3.414062 -1.753906 3.5 -2.015625 C 3.164062 -1.492188 2.8125 -1.046875 2.4375 -0.671875 C 2.070312 -0.296875 1.71875 -0.0703125 1.375 0 C 1.144531 0 0.953125 -0.101562 0.796875 -0.3125 C 0.648438 -0.53125 0.578125 -0.867188 0.578125 -1.328125 C 0.578125 -1.734375 0.660156 -2.132812 0.828125 -2.53125 C 0.992188 -2.9375 1.21875 -3.300781 1.5 -3.625 C 1.78125 -3.957031 2.101562 -4.222656 2.46875 -4.421875 C 2.84375 -4.617188 3.234375 -4.71875 3.640625 -4.71875 C 3.859375 -4.71875 4.046875 -4.691406 4.203125 -4.640625 C 4.367188 -4.585938 4.519531 -4.515625 4.65625 -4.421875 C 4.726562 -4.484375 4.828125 -4.539062 4.953125 -4.59375 C 5.085938 -4.644531 5.210938 -4.671875 5.328125 -4.671875 C 5.390625 -4.671875 5.40625 -4.640625 5.375 -4.578125 C 5.09375 -4.234375 4.847656 -3.851562 4.640625 -3.4375 C 4.441406 -3.019531 4.285156 -2.613281 4.171875 -2.21875 C 4.066406 -1.820312 4 -1.472656 3.96875 -1.171875 C 3.9375 -0.867188 3.957031 -0.660156 4.03125 -0.546875 C 4.09375 -0.460938 4.203125 -0.460938 4.359375 -0.546875 C 4.523438 -0.628906 4.734375 -0.835938 4.984375 -1.171875 Z M 1.78125 -0.625 C 1.914062 -0.625 2.085938 -0.71875 2.296875 -0.90625 C 2.515625 -1.101562 2.738281 -1.351562 2.96875 -1.65625 C 3.207031 -1.96875 3.441406 -2.316406 3.671875 -2.703125 C 3.898438 -3.097656 4.097656 -3.488281 4.265625 -3.875 C 4.222656 -4.039062 4.109375 -4.171875 3.921875 -4.265625 C 3.742188 -4.367188 3.539062 -4.421875 3.3125 -4.421875 C 3.039062 -4.421875 2.785156 -4.347656 2.546875 -4.203125 C 2.304688 -4.066406 2.09375 -3.867188 1.90625 -3.609375 C 1.71875 -3.359375 1.566406 -3.0625 1.453125 -2.71875 C 1.347656 -2.375 1.296875 -1.992188 1.296875 -1.578125 C 1.296875 -1.304688 1.34375 -1.078125 1.4375 -0.890625 C 1.53125 -0.710938 1.644531 -0.625 1.78125 -0.625 Z M 1.78125 -0.625 "/></g></g></g><g fill="rgb(3.529358%, 19.999695%, 24.708557%)" fill-opacity="1"><g transform="translate(69.308061, 32.022048)"><g><path d="M 6.578125 -3.875 C 6.578125 -4.132812 6.484375 -4.265625 6.296875 -4.265625 C 6.117188 -4.265625 5.914062 -4.171875 5.6875 -3.984375 C 5.46875 -3.804688 5.238281 -3.546875 5 -3.203125 C 4.757812 -2.859375 4.519531 -2.4375 4.28125 -1.9375 C 4.039062 -1.4375 3.8125 -0.867188 3.59375 -0.234375 C 3.5625 -0.160156 3.492188 -0.101562 3.390625 -0.0625 C 3.285156 -0.0195312 3.1875 0 3.09375 0 C 2.9375 0 2.878906 -0.0546875 2.921875 -0.171875 C 2.992188 -0.390625 3.09375 -0.664062 3.21875 -1 C 3.351562 -1.332031 3.476562 -1.671875 3.59375 -2.015625 C 3.707031 -2.367188 3.804688 -2.695312 3.890625 -3 C 3.984375 -3.3125 4.03125 -3.554688 4.03125 -3.734375 C 4.03125 -4.078125 3.925781 -4.25 3.71875 -4.25 C 3.394531 -4.25 2.984375 -3.90625 2.484375 -3.21875 C 1.992188 -2.53125 1.53125 -1.535156 1.09375 -0.234375 C 1.0625 -0.160156 1.003906 -0.101562 0.921875 -0.0625 C 0.835938 -0.0195312 0.742188 0 0.640625 0 C 0.578125 0 0.523438 -0.0078125 0.484375 -0.03125 C 0.453125 -0.0625 0.453125 -0.109375 0.484375 -0.171875 C 0.578125 -0.441406 0.679688 -0.738281 0.796875 -1.0625 C 0.910156 -1.382812 1.019531 -1.710938 1.125 -2.046875 C 1.238281 -2.378906 1.34375 -2.707031 1.4375 -3.03125 C 1.53125 -3.351562 1.601562 -3.65625 1.65625 -3.9375 C 1.71875 -4.15625 1.691406 -4.265625 1.578125 -4.265625 C 1.472656 -4.265625 1.351562 -4.195312 1.21875 -4.0625 C 1.082031 -3.925781 0.945312 -3.769531 0.8125 -3.59375 C 0.78125 -3.5625 0.742188 -3.5625 0.703125 -3.59375 C 0.660156 -3.625 0.65625 -3.660156 0.6875 -3.703125 C 0.875 -3.953125 1.078125 -4.1875 1.296875 -4.40625 C 1.523438 -4.625 1.757812 -4.734375 2 -4.734375 C 2.15625 -4.734375 2.253906 -4.671875 2.296875 -4.546875 C 2.335938 -4.421875 2.34375 -4.273438 2.3125 -4.109375 C 2.25 -3.835938 2.1875 -3.585938 2.125 -3.359375 C 2.070312 -3.128906 2.003906 -2.894531 1.921875 -2.65625 C 2.242188 -3.28125 2.597656 -3.78125 2.984375 -4.15625 C 3.367188 -4.539062 3.753906 -4.734375 4.140625 -4.734375 C 4.285156 -4.734375 4.40625 -4.675781 4.5 -4.5625 C 4.59375 -4.457031 4.640625 -4.304688 4.640625 -4.109375 C 4.640625 -3.847656 4.613281 -3.585938 4.5625 -3.328125 C 4.507812 -3.066406 4.4375 -2.800781 4.34375 -2.53125 C 4.707031 -3.238281 5.101562 -3.78125 5.53125 -4.15625 C 5.957031 -4.539062 6.378906 -4.734375 6.796875 -4.734375 C 6.929688 -4.734375 7.039062 -4.679688 7.125 -4.578125 C 7.21875 -4.484375 7.265625 -4.359375 7.265625 -4.203125 C 7.265625 -3.972656 7.21875 -3.722656 7.125 -3.453125 C 7.03125 -3.191406 6.925781 -2.921875 6.8125 -2.640625 C 6.707031 -2.359375 6.609375 -2.078125 6.515625 -1.796875 C 6.421875 -1.523438 6.375 -1.265625 6.375 -1.015625 C 6.375 -0.703125 6.46875 -0.546875 6.65625 -0.546875 C 6.851562 -0.546875 7.125 -0.753906 7.46875 -1.171875 C 7.488281 -1.191406 7.515625 -1.179688 7.546875 -1.140625 C 7.578125 -1.109375 7.582031 -1.066406 7.5625 -1.015625 C 7.488281 -0.921875 7.394531 -0.8125 7.28125 -0.6875 C 7.164062 -0.570312 7.050781 -0.460938 6.9375 -0.359375 C 6.820312 -0.253906 6.695312 -0.164062 6.5625 -0.09375 C 6.425781 -0.03125 6.296875 0 6.171875 0 C 5.890625 0 5.75 -0.234375 5.75 -0.703125 C 5.75 -0.992188 5.789062 -1.289062 5.875 -1.59375 C 5.957031 -1.894531 6.050781 -2.1875 6.15625 -2.46875 C 6.269531 -2.75 6.367188 -3.007812 6.453125 -3.25 C 6.535156 -3.5 6.578125 -3.707031 6.578125 -3.875 Z M 6.578125 -3.875 "/></g></g></g><g fill="rgb(3.529358%, 19.999695%, 24.708557%)" fill-opacity="1"><g transform="translate(76.935673, 32.022048)"><g><path d="M 0.96875 -3.4375 C 0.925781 -3.414062 0.890625 -3.425781 0.859375 -3.46875 C 0.828125 -3.507812 0.820312 -3.550781 0.84375 -3.59375 C 1.019531 -3.757812 1.253906 -3.953125 1.546875 -4.171875 C 1.847656 -4.398438 2.144531 -4.585938 2.4375 -4.734375 C 2.539062 -4.734375 2.59375 -4.675781 2.59375 -4.5625 C 2.425781 -4.28125 2.265625 -3.972656 2.109375 -3.640625 C 1.960938 -3.304688 1.828125 -2.972656 1.703125 -2.640625 C 1.585938 -2.316406 1.492188 -2.003906 1.421875 -1.703125 C 1.347656 -1.398438 1.3125 -1.15625 1.3125 -0.96875 C 1.3125 -0.707031 1.398438 -0.578125 1.578125 -0.578125 C 1.710938 -0.578125 1.84375 -0.632812 1.96875 -0.75 C 2.09375 -0.863281 2.242188 -1.019531 2.421875 -1.21875 C 2.441406 -1.238281 2.46875 -1.226562 2.5 -1.1875 C 2.539062 -1.15625 2.550781 -1.117188 2.53125 -1.078125 C 2.3125 -0.804688 2.070312 -0.554688 1.8125 -0.328125 C 1.5625 -0.109375 1.328125 0 1.109375 0 C 0.785156 0 0.625 -0.203125 0.625 -0.609375 C 0.625 -0.847656 0.664062 -1.128906 0.75 -1.453125 C 0.832031 -1.773438 0.929688 -2.101562 1.046875 -2.4375 C 1.171875 -2.769531 1.3125 -3.085938 1.46875 -3.390625 C 1.625 -3.703125 1.773438 -3.972656 1.921875 -4.203125 C 1.785156 -4.097656 1.613281 -3.96875 1.40625 -3.8125 C 1.207031 -3.664062 1.0625 -3.539062 0.96875 -3.4375 Z M 2.625 -5.53125 C 2.582031 -5.488281 2.546875 -5.484375 2.515625 -5.515625 C 2.492188 -5.546875 2.472656 -5.585938 2.453125 -5.640625 C 2.441406 -5.703125 2.4375 -5.769531 2.4375 -5.84375 C 2.4375 -5.914062 2.457031 -5.976562 2.5 -6.03125 C 2.8125 -6.46875 3.257812 -6.941406 3.84375 -7.453125 C 3.882812 -7.460938 3.921875 -7.453125 3.953125 -7.421875 C 3.992188 -7.390625 4 -7.363281 3.96875 -7.34375 C 3.71875 -7.101562 3.472656 -6.816406 3.234375 -6.484375 C 3.003906 -6.160156 2.800781 -5.84375 2.625 -5.53125 Z M 2.625 -5.53125 "/></g></g></g><g fill="rgb(3.529358%, 19.999695%, 24.708557%)" fill-opacity="1"><g transform="translate(79.68752, 32.022048)"><g><path d="M 8.171875 -13.734375 C 8.492188 -13.734375 8.695312 -13.582031 8.78125 -13.28125 C 8.875 -12.988281 8.835938 -12.675781 8.671875 -12.34375 C 8.640625 -12.320312 8.601562 -12.320312 8.5625 -12.34375 C 8.53125 -12.375 8.507812 -12.40625 8.5 -12.4375 C 8.53125 -12.582031 8.476562 -12.703125 8.34375 -12.796875 C 8.21875 -12.898438 8.019531 -12.953125 7.75 -12.953125 C 7.21875 -12.953125 6.691406 -12.726562 6.171875 -12.28125 C 5.648438 -11.84375 5.148438 -11.269531 4.671875 -10.5625 C 4.191406 -9.851562 3.742188 -9.0625 3.328125 -8.1875 C 2.921875 -7.3125 2.566406 -6.4375 2.265625 -5.5625 C 1.960938 -4.695312 1.722656 -3.878906 1.546875 -3.109375 C 1.378906 -2.335938 1.296875 -1.710938 1.296875 -1.234375 C 1.296875 -0.867188 1.398438 -0.6875 1.609375 -0.6875 C 1.753906 -0.6875 1.894531 -0.742188 2.03125 -0.859375 C 2.175781 -0.984375 2.34375 -1.171875 2.53125 -1.421875 C 2.570312 -1.441406 2.609375 -1.4375 2.640625 -1.40625 C 2.671875 -1.382812 2.675781 -1.347656 2.65625 -1.296875 C 2.414062 -0.910156 2.144531 -0.597656 1.84375 -0.359375 C 1.550781 -0.117188 1.300781 0 1.09375 0 C 0.925781 0 0.789062 -0.0625 0.6875 -0.1875 C 0.59375 -0.320312 0.546875 -0.5 0.546875 -0.71875 C 0.546875 -1.0625 0.609375 -1.507812 0.734375 -2.0625 C 0.859375 -2.613281 1.03125 -3.226562 1.25 -3.90625 C 1.476562 -4.582031 1.75 -5.289062 2.0625 -6.03125 C 2.375 -6.78125 2.710938 -7.515625 3.078125 -8.234375 C 3.453125 -8.960938 3.84375 -9.660156 4.25 -10.328125 C 4.664062 -10.992188 5.09375 -11.578125 5.53125 -12.078125 C 5.96875 -12.585938 6.40625 -12.988281 6.84375 -13.28125 C 7.289062 -13.582031 7.734375 -13.734375 8.171875 -13.734375 Z M 8.171875 -13.734375 "/></g></g></g><g fill="rgb(3.529358%, 19.999695%, 24.708557%)" fill-opacity="1"><g transform="translate(82.162338, 32.022048)"><g><path d="M 4.484375 -4.28125 C 4.503906 -4.320312 4.535156 -4.363281 4.578125 -4.40625 C 4.628906 -4.445312 4.6875 -4.492188 4.75 -4.546875 C 4.820312 -4.597656 4.890625 -4.640625 4.953125 -4.671875 C 5.023438 -4.703125 5.082031 -4.71875 5.125 -4.71875 C 5.226562 -4.71875 5.269531 -4.671875 5.25 -4.578125 C 4.976562 -3.816406 4.710938 -3.078125 4.453125 -2.359375 C 4.191406 -1.640625 3.914062 -0.890625 3.625 -0.109375 C 3.289062 0.753906 2.9375 1.476562 2.5625 2.0625 C 2.1875 2.644531 1.789062 3.117188 1.375 3.484375 C 0.96875 3.847656 0.539062 4.109375 0.09375 4.265625 C -0.351562 4.429688 -0.8125 4.515625 -1.28125 4.515625 C -1.925781 4.515625 -2.414062 4.347656 -2.75 4.015625 C -3.09375 3.691406 -3.265625 3.289062 -3.265625 2.8125 C -3.265625 2.59375 -3.207031 2.359375 -3.09375 2.109375 C -2.976562 1.859375 -2.796875 1.640625 -2.546875 1.453125 C -2.515625 1.429688 -2.484375 1.445312 -2.453125 1.5 C -2.421875 1.550781 -2.414062 1.585938 -2.4375 1.609375 C -2.632812 1.835938 -2.734375 2.101562 -2.734375 2.40625 C -2.734375 2.914062 -2.582031 3.332031 -2.28125 3.65625 C -1.988281 3.976562 -1.539062 4.140625 -0.9375 4.140625 C -0.507812 4.140625 -0.113281 4.070312 0.25 3.9375 C 0.613281 3.800781 0.957031 3.5625 1.28125 3.21875 C 1.613281 2.875 1.929688 2.410156 2.234375 1.828125 C 2.535156 1.253906 2.84375 0.53125 3.15625 -0.34375 C 3.289062 -0.757812 3.421875 -1.140625 3.546875 -1.484375 C 3.679688 -1.828125 3.816406 -2.179688 3.953125 -2.546875 C 3.484375 -1.804688 2.992188 -1.203125 2.484375 -0.734375 C 1.972656 -0.265625 1.519531 -0.015625 1.125 0.015625 C 0.96875 0.015625 0.851562 -0.0546875 0.78125 -0.203125 C 0.707031 -0.347656 0.671875 -0.550781 0.671875 -0.8125 C 0.671875 -1.03125 0.691406 -1.269531 0.734375 -1.53125 C 0.785156 -1.800781 0.859375 -2.078125 0.953125 -2.359375 C 1.046875 -2.648438 1.160156 -2.9375 1.296875 -3.21875 C 1.441406 -3.507812 1.601562 -3.789062 1.78125 -4.0625 C 1.644531 -3.96875 1.5 -3.859375 1.34375 -3.734375 C 1.195312 -3.617188 1.078125 -3.515625 0.984375 -3.421875 C 0.941406 -3.390625 0.90625 -3.394531 0.875 -3.4375 C 0.84375 -3.488281 0.84375 -3.53125 0.875 -3.5625 C 1.039062 -3.738281 1.269531 -3.9375 1.5625 -4.15625 C 1.863281 -4.375 2.15625 -4.5625 2.4375 -4.71875 C 2.5625 -4.71875 2.613281 -4.660156 2.59375 -4.546875 C 2.40625 -4.296875 2.234375 -4.019531 2.078125 -3.71875 C 1.921875 -3.414062 1.785156 -3.113281 1.671875 -2.8125 C 1.566406 -2.507812 1.484375 -2.210938 1.421875 -1.921875 C 1.359375 -1.628906 1.328125 -1.363281 1.328125 -1.125 C 1.328125 -0.78125 1.445312 -0.609375 1.6875 -0.609375 C 1.882812 -0.609375 2.117188 -0.738281 2.390625 -1 C 2.671875 -1.269531 2.945312 -1.59375 3.21875 -1.96875 C 3.5 -2.34375 3.753906 -2.742188 3.984375 -3.171875 C 4.210938 -3.597656 4.378906 -3.96875 4.484375 -4.28125 Z M 4.484375 -4.28125 "/></g></g></g><g fill="rgb(3.529358%, 19.999695%, 24.708557%)" fill-opacity="1"><g transform="translate(87.333603, 32.022048)"><g/></g></g><g fill="rgb(3.529358%, 19.999695%, 24.708557%)" fill-opacity="1"><g transform="translate(90.10392, 32.022048)"><g><path d="M 10.78125 -10.921875 C 11.382812 -10.566406 11.925781 -10.140625 12.40625 -9.640625 C 12.882812 -9.140625 13.289062 -8.613281 13.625 -8.0625 C 13.96875 -7.507812 14.226562 -6.945312 14.40625 -6.375 C 14.582031 -5.800781 14.671875 -5.253906 14.671875 -4.734375 C 14.671875 -4.046875 14.5625 -3.414062 14.34375 -2.84375 C 14.125 -2.269531 13.796875 -1.769531 13.359375 -1.34375 C 12.929688 -0.914062 12.398438 -0.582031 11.765625 -0.34375 C 11.140625 -0.113281 10.425781 0 9.625 0 C 9.15625 0 8.71875 -0.03125 8.3125 -0.09375 C 7.90625 -0.15625 7.519531 -0.234375 7.15625 -0.328125 C 6.800781 -0.421875 6.457031 -0.519531 6.125 -0.625 C 5.789062 -0.738281 5.457031 -0.851562 5.125 -0.96875 C 4.644531 -0.632812 4.117188 -0.390625 3.546875 -0.234375 C 2.972656 -0.078125 2.332031 0 1.625 0 C 1.226562 0 0.945312 -0.046875 0.78125 -0.140625 C 0.625 -0.234375 0.546875 -0.359375 0.546875 -0.515625 C 0.546875 -0.679688 0.601562 -0.851562 0.71875 -1.03125 C 0.832031 -1.207031 0.988281 -1.367188 1.1875 -1.515625 C 1.382812 -1.660156 1.625 -1.78125 1.90625 -1.875 C 2.1875 -1.96875 2.503906 -2.015625 2.859375 -2.015625 C 3.328125 -2.015625 3.765625 -1.96875 4.171875 -1.875 C 4.578125 -1.789062 4.972656 -1.691406 5.359375 -1.578125 C 5.816406 -2.054688 6.242188 -2.71875 6.640625 -3.5625 C 7.035156 -4.414062 7.453125 -5.523438 7.890625 -6.890625 C 8.148438 -7.679688 8.429688 -8.382812 8.734375 -9 C 9.046875 -9.613281 9.398438 -10.140625 9.796875 -10.578125 C 9.316406 -10.816406 8.804688 -11.007812 8.265625 -11.15625 C 7.722656 -11.3125 7.15625 -11.390625 6.5625 -11.390625 C 6.082031 -11.390625 5.640625 -11.3125 5.234375 -11.15625 C 4.835938 -11 4.484375 -10.78125 4.171875 -10.5 C 3.867188 -10.226562 3.617188 -9.898438 3.421875 -9.515625 C 3.222656 -9.140625 3.085938 -8.71875 3.015625 -8.25 C 2.941406 -8.175781 2.890625 -8.195312 2.859375 -8.3125 C 2.910156 -8.832031 3.046875 -9.3125 3.265625 -9.75 C 3.492188 -10.1875 3.796875 -10.566406 4.171875 -10.890625 C 4.546875 -11.210938 4.992188 -11.460938 5.515625 -11.640625 C 6.035156 -11.816406 6.625 -11.90625 7.28125 -11.90625 C 7.851562 -11.90625 8.394531 -11.835938 8.90625 -11.703125 C 9.425781 -11.566406 9.921875 -11.375 10.390625 -11.125 C 11.054688 -11.664062 11.84375 -12.03125 12.75 -12.21875 C 12.789062 -12.21875 12.8125 -12.195312 12.8125 -12.15625 C 12.820312 -12.113281 12.804688 -12.078125 12.765625 -12.046875 C 12.378906 -11.953125 12.019531 -11.804688 11.6875 -11.609375 C 11.363281 -11.421875 11.0625 -11.191406 10.78125 -10.921875 Z M 2.25 -0.328125 C 2.769531 -0.328125 3.234375 -0.378906 3.640625 -0.484375 C 4.054688 -0.585938 4.445312 -0.773438 4.8125 -1.046875 C 4.40625 -1.171875 3.984375 -1.273438 3.546875 -1.359375 C 3.117188 -1.453125 2.644531 -1.5 2.125 -1.5 C 1.789062 -1.5 1.539062 -1.441406 1.375 -1.328125 C 1.21875 -1.222656 1.128906 -1.085938 1.109375 -0.921875 C 1.085938 -0.753906 1.15625 -0.613281 1.3125 -0.5 C 1.46875 -0.382812 1.78125 -0.328125 2.25 -0.328125 Z M 10.46875 -0.5 C 11.632812 -0.5 12.507812 -0.828125 13.09375 -1.484375 C 13.675781 -2.148438 13.96875 -3.035156 13.96875 -4.140625 C 13.96875 -4.722656 13.878906 -5.304688 13.703125 -5.890625 C 13.535156 -6.472656 13.289062 -7.035156 12.96875 -7.578125 C 12.644531 -8.128906 12.253906 -8.640625 11.796875 -9.109375 C 11.335938 -9.578125 10.828125 -9.984375 10.265625 -10.328125 C 9.941406 -9.929688 9.65625 -9.476562 9.40625 -8.96875 C 9.15625 -8.457031 8.925781 -7.890625 8.71875 -7.265625 C 8.269531 -5.847656 7.804688 -4.664062 7.328125 -3.71875 C 6.859375 -2.78125 6.320312 -2.019531 5.71875 -1.4375 C 6.019531 -1.332031 6.335938 -1.222656 6.671875 -1.109375 C 7.003906 -0.992188 7.359375 -0.890625 7.734375 -0.796875 C 8.109375 -0.710938 8.519531 -0.640625 8.96875 -0.578125 C 9.425781 -0.523438 9.925781 -0.5 10.46875 -0.5 Z M 10.46875 -0.5 "/></g></g></g><g fill="rgb(3.529358%, 19.999695%, 24.708557%)" fill-opacity="1"><g transform="translate(104.860491, 32.022048)"><g><path d="M 3.8125 -3.921875 C 3.8125 -3.742188 3.742188 -3.582031 3.609375 -3.4375 C 3.472656 -3.289062 3.285156 -3.15625 3.046875 -3.03125 C 2.816406 -2.914062 2.550781 -2.804688 2.25 -2.703125 C 1.945312 -2.609375 1.628906 -2.519531 1.296875 -2.4375 C 1.285156 -2.300781 1.273438 -2.164062 1.265625 -2.03125 C 1.253906 -1.894531 1.25 -1.75 1.25 -1.59375 C 1.25 -1.28125 1.316406 -1.019531 1.453125 -0.8125 C 1.585938 -0.601562 1.78125 -0.5 2.03125 -0.5 C 2.28125 -0.5 2.507812 -0.5625 2.71875 -0.6875 C 2.9375 -0.8125 3.132812 -0.976562 3.3125 -1.1875 C 3.351562 -1.207031 3.382812 -1.195312 3.40625 -1.15625 C 3.4375 -1.125 3.441406 -1.082031 3.421875 -1.03125 C 3.210938 -0.75 2.945312 -0.503906 2.625 -0.296875 C 2.3125 -0.0976562 1.984375 0 1.640625 0 C 1.328125 0 1.066406 -0.101562 0.859375 -0.3125 C 0.648438 -0.519531 0.546875 -0.828125 0.546875 -1.234375 C 0.546875 -1.609375 0.613281 -2 0.75 -2.40625 C 0.894531 -2.820312 1.078125 -3.203125 1.296875 -3.546875 C 1.515625 -3.890625 1.769531 -4.171875 2.0625 -4.390625 C 2.351562 -4.617188 2.65625 -4.734375 2.96875 -4.734375 C 3.207031 -4.734375 3.40625 -4.648438 3.5625 -4.484375 C 3.726562 -4.316406 3.8125 -4.128906 3.8125 -3.921875 Z M 2.59375 -4.25 C 2.300781 -4.25 2.046875 -4.125 1.828125 -3.875 C 1.609375 -3.632812 1.445312 -3.25 1.34375 -2.71875 C 1.9375 -2.800781 2.367188 -2.925781 2.640625 -3.09375 C 2.921875 -3.257812 3.0625 -3.445312 3.0625 -3.65625 C 3.0625 -3.832031 3.019531 -3.972656 2.9375 -4.078125 C 2.851562 -4.191406 2.738281 -4.25 2.59375 -4.25 Z M 2.59375 -4.25 "/></g></g></g><g fill="rgb(3.529358%, 19.999695%, 24.708557%)" fill-opacity="1"><g transform="translate(108.665067, 32.022048)"><g><path d="M 5.21875 -1.1875 C 5.25 -1.207031 5.28125 -1.203125 5.3125 -1.171875 C 5.351562 -1.148438 5.367188 -1.117188 5.359375 -1.078125 C 5.148438 -0.785156 4.914062 -0.53125 4.65625 -0.3125 C 4.40625 -0.101562 4.171875 0 3.953125 0 C 3.566406 0 3.375 -0.242188 3.375 -0.734375 C 3.375 -1.160156 3.445312 -1.628906 3.59375 -2.140625 C 3.75 -2.648438 3.957031 -3.160156 4.21875 -3.671875 C 4.257812 -3.765625 4.28125 -3.851562 4.28125 -3.9375 C 4.28125 -4.070312 4.222656 -4.140625 4.109375 -4.140625 C 3.648438 -4.140625 3.144531 -3.820312 2.59375 -3.1875 C 2.050781 -2.5625 1.546875 -1.578125 1.078125 -0.234375 C 1.046875 -0.160156 0.972656 -0.101562 0.859375 -0.0625 C 0.753906 -0.0195312 0.648438 0 0.546875 0 C 0.410156 0 0.363281 -0.0546875 0.40625 -0.171875 C 0.613281 -0.703125 0.832031 -1.296875 1.0625 -1.953125 C 1.289062 -2.617188 1.488281 -3.28125 1.65625 -3.9375 C 1.707031 -4.164062 1.664062 -4.28125 1.53125 -4.28125 C 1.40625 -4.28125 1.28125 -4.21875 1.15625 -4.09375 C 1.039062 -3.976562 0.914062 -3.820312 0.78125 -3.625 C 0.75 -3.601562 0.71875 -3.609375 0.6875 -3.640625 C 0.65625 -3.679688 0.648438 -3.71875 0.671875 -3.75 C 0.804688 -3.957031 0.988281 -4.171875 1.21875 -4.390625 C 1.457031 -4.617188 1.710938 -4.734375 1.984375 -4.734375 C 2.285156 -4.734375 2.390625 -4.523438 2.296875 -4.109375 C 2.242188 -3.835938 2.171875 -3.550781 2.078125 -3.25 C 1.992188 -2.945312 1.90625 -2.644531 1.8125 -2.34375 C 1.976562 -2.675781 2.175781 -2.988281 2.40625 -3.28125 C 2.644531 -3.582031 2.890625 -3.835938 3.140625 -4.046875 C 3.398438 -4.253906 3.65625 -4.421875 3.90625 -4.546875 C 4.15625 -4.671875 4.394531 -4.734375 4.625 -4.734375 C 4.769531 -4.734375 4.878906 -4.695312 4.953125 -4.625 C 5.035156 -4.550781 5.078125 -4.460938 5.078125 -4.359375 C 5.078125 -4.203125 5.039062 -4.039062 4.96875 -3.875 C 4.707031 -3.40625 4.488281 -2.914062 4.3125 -2.40625 C 4.132812 -1.894531 4.046875 -1.425781 4.046875 -1 C 4.046875 -0.6875 4.144531 -0.53125 4.34375 -0.53125 C 4.601562 -0.53125 4.894531 -0.75 5.21875 -1.1875 Z M 5.21875 -1.1875 "/></g></g></g><g fill="rgb(3.529358%, 19.999695%, 24.708557%)" fill-opacity="1"><g transform="translate(114.039487, 32.022048)"><g><path d="M 3.8125 -4.65625 C 3.875 -4.632812 3.894531 -4.597656 3.875 -4.546875 C 3.863281 -4.492188 3.8125 -4.460938 3.71875 -4.453125 C 3.519531 -4.441406 3.300781 -4.429688 3.0625 -4.421875 C 2.820312 -4.410156 2.578125 -4.390625 2.328125 -4.359375 C 2.078125 -3.742188 1.875 -3.148438 1.71875 -2.578125 C 1.5625 -2.015625 1.484375 -1.550781 1.484375 -1.1875 C 1.484375 -0.757812 1.640625 -0.546875 1.953125 -0.546875 C 2.273438 -0.546875 2.628906 -0.832031 3.015625 -1.40625 C 3.046875 -1.425781 3.078125 -1.421875 3.109375 -1.390625 C 3.148438 -1.359375 3.164062 -1.3125 3.15625 -1.25 C 3.050781 -1.082031 2.925781 -0.921875 2.78125 -0.765625 C 2.632812 -0.609375 2.488281 -0.472656 2.34375 -0.359375 C 2.195312 -0.253906 2.054688 -0.164062 1.921875 -0.09375 C 1.785156 -0.03125 1.675781 0 1.59375 0 C 1.320312 0 1.117188 -0.0820312 0.984375 -0.25 C 0.859375 -0.414062 0.796875 -0.613281 0.796875 -0.84375 C 0.796875 -1.25 0.878906 -1.757812 1.046875 -2.375 C 1.222656 -3 1.441406 -3.632812 1.703125 -4.28125 C 1.535156 -4.257812 1.378906 -4.234375 1.234375 -4.203125 C 1.085938 -4.179688 0.945312 -4.160156 0.8125 -4.140625 C 0.75 -4.148438 0.734375 -4.179688 0.765625 -4.234375 C 0.796875 -4.285156 0.847656 -4.332031 0.921875 -4.375 C 1.003906 -4.425781 1.101562 -4.472656 1.21875 -4.515625 C 1.332031 -4.554688 1.4375 -4.578125 1.53125 -4.578125 C 1.59375 -4.597656 1.644531 -4.609375 1.6875 -4.609375 C 1.726562 -4.609375 1.773438 -4.609375 1.828125 -4.609375 C 2.003906 -4.984375 2.175781 -5.347656 2.34375 -5.703125 C 2.519531 -6.054688 2.691406 -6.378906 2.859375 -6.671875 C 2.929688 -6.742188 3.015625 -6.804688 3.109375 -6.859375 C 3.203125 -6.921875 3.289062 -6.957031 3.375 -6.96875 C 3.46875 -6.988281 3.535156 -6.992188 3.578125 -6.984375 C 3.628906 -6.984375 3.648438 -6.96875 3.640625 -6.9375 C 3.429688 -6.613281 3.222656 -6.253906 3.015625 -5.859375 C 2.816406 -5.460938 2.625 -5.054688 2.4375 -4.640625 C 2.65625 -4.640625 2.875 -4.640625 3.09375 -4.640625 C 3.320312 -4.648438 3.5625 -4.65625 3.8125 -4.65625 Z M 3.8125 -4.65625 "/></g></g></g><g fill="rgb(3.529358%, 19.999695%, 24.708557%)" fill-opacity="1"><g transform="translate(117.197656, 32.022048)"><g><path d="M 4.984375 -1.171875 C 5.015625 -1.191406 5.046875 -1.1875 5.078125 -1.15625 C 5.117188 -1.132812 5.132812 -1.097656 5.125 -1.046875 C 4.863281 -0.691406 4.601562 -0.425781 4.34375 -0.25 C 4.09375 -0.0820312 3.882812 0 3.71875 0 C 3.601562 0 3.507812 -0.0507812 3.4375 -0.15625 C 3.375 -0.269531 3.332031 -0.421875 3.3125 -0.609375 C 3.300781 -0.804688 3.304688 -1.023438 3.328125 -1.265625 C 3.359375 -1.503906 3.414062 -1.753906 3.5 -2.015625 C 3.164062 -1.492188 2.8125 -1.046875 2.4375 -0.671875 C 2.070312 -0.296875 1.71875 -0.0703125 1.375 0 C 1.144531 0 0.953125 -0.101562 0.796875 -0.3125 C 0.648438 -0.53125 0.578125 -0.867188 0.578125 -1.328125 C 0.578125 -1.734375 0.660156 -2.132812 0.828125 -2.53125 C 0.992188 -2.9375 1.21875 -3.300781 1.5 -3.625 C 1.78125 -3.957031 2.101562 -4.222656 2.46875 -4.421875 C 2.84375 -4.617188 3.234375 -4.71875 3.640625 -4.71875 C 3.859375 -4.71875 4.046875 -4.691406 4.203125 -4.640625 C 4.367188 -4.585938 4.519531 -4.515625 4.65625 -4.421875 C 4.726562 -4.484375 4.828125 -4.539062 4.953125 -4.59375 C 5.085938 -4.644531 5.210938 -4.671875 5.328125 -4.671875 C 5.390625 -4.671875 5.40625 -4.640625 5.375 -4.578125 C 5.09375 -4.234375 4.847656 -3.851562 4.640625 -3.4375 C 4.441406 -3.019531 4.285156 -2.613281 4.171875 -2.21875 C 4.066406 -1.820312 4 -1.472656 3.96875 -1.171875 C 3.9375 -0.867188 3.957031 -0.660156 4.03125 -0.546875 C 4.09375 -0.460938 4.203125 -0.460938 4.359375 -0.546875 C 4.523438 -0.628906 4.734375 -0.835938 4.984375 -1.171875 Z M 1.78125 -0.625 C 1.914062 -0.625 2.085938 -0.71875 2.296875 -0.90625 C 2.515625 -1.101562 2.738281 -1.351562 2.96875 -1.65625 C 3.207031 -1.96875 3.441406 -2.316406 3.671875 -2.703125 C 3.898438 -3.097656 4.097656 -3.488281 4.265625 -3.875 C 4.222656 -4.039062 4.109375 -4.171875 3.921875 -4.265625 C 3.742188 -4.367188 3.539062 -4.421875 3.3125 -4.421875 C 3.039062 -4.421875 2.785156 -4.347656 2.546875 -4.203125 C 2.304688 -4.066406 2.09375 -3.867188 1.90625 -3.609375 C 1.71875 -3.359375 1.566406 -3.0625 1.453125 -2.71875 C 1.347656 -2.375 1.296875 -1.992188 1.296875 -1.578125 C 1.296875 -1.304688 1.34375 -1.078125 1.4375 -0.890625 C 1.53125 -0.710938 1.644531 -0.625 1.78125 -0.625 Z M 1.78125 -0.625 "/></g></g></g><g fill="rgb(3.529358%, 19.999695%, 24.708557%)" fill-opacity="1"><g transform="translate(122.627476, 32.022048)"><g><path d="M 8.171875 -13.734375 C 8.492188 -13.734375 8.695312 -13.582031 8.78125 -13.28125 C 8.875 -12.988281 8.835938 -12.675781 8.671875 -12.34375 C 8.640625 -12.320312 8.601562 -12.320312 8.5625 -12.34375 C 8.53125 -12.375 8.507812 -12.40625 8.5 -12.4375 C 8.53125 -12.582031 8.476562 -12.703125 8.34375 -12.796875 C 8.21875 -12.898438 8.019531 -12.953125 7.75 -12.953125 C 7.21875 -12.953125 6.691406 -12.726562 6.171875 -12.28125 C 5.648438 -11.84375 5.148438 -11.269531 4.671875 -10.5625 C 4.191406 -9.851562 3.742188 -9.0625 3.328125 -8.1875 C 2.921875 -7.3125 2.566406 -6.4375 2.265625 -5.5625 C 1.960938 -4.695312 1.722656 -3.878906 1.546875 -3.109375 C 1.378906 -2.335938 1.296875 -1.710938 1.296875 -1.234375 C 1.296875 -0.867188 1.398438 -0.6875 1.609375 -0.6875 C 1.753906 -0.6875 1.894531 -0.742188 2.03125 -0.859375 C 2.175781 -0.984375 2.34375 -1.171875 2.53125 -1.421875 C 2.570312 -1.441406 2.609375 -1.4375 2.640625 -1.40625 C 2.671875 -1.382812 2.675781 -1.347656 2.65625 -1.296875 C 2.414062 -0.910156 2.144531 -0.597656 1.84375 -0.359375 C 1.550781 -0.117188 1.300781 0 1.09375 0 C 0.925781 0 0.789062 -0.0625 0.6875 -0.1875 C 0.59375 -0.320312 0.546875 -0.5 0.546875 -0.71875 C 0.546875 -1.0625 0.609375 -1.507812 0.734375 -2.0625 C 0.859375 -2.613281 1.03125 -3.226562 1.25 -3.90625 C 1.476562 -4.582031 1.75 -5.289062 2.0625 -6.03125 C 2.375 -6.78125 2.710938 -7.515625 3.078125 -8.234375 C 3.453125 -8.960938 3.84375 -9.660156 4.25 -10.328125 C 4.664062 -10.992188 5.09375 -11.578125 5.53125 -12.078125 C 5.96875 -12.585938 6.40625 -12.988281 6.84375 -13.28125 C 7.289062 -13.582031 7.734375 -13.734375 8.171875 -13.734375 Z M 8.171875 -13.734375 "/></g></g></g><g fill="rgb(3.529358%, 19.999695%, 24.708557%)" fill-opacity="1"><g transform="translate(50.608905, 54.157228)"><g><path d="M 1.140625 -1.3125 C 1.015625 -1.320312 0.90625 -1.28125 0.8125 -1.1875 C 0.71875 -1.09375 0.660156 -0.953125 0.640625 -0.765625 C 0.609375 -0.597656 0.617188 -0.457031 0.671875 -0.34375 C 0.734375 -0.238281 0.832031 -0.175781 0.96875 -0.15625 C 1.039062 -0.144531 1.113281 -0.140625 1.1875 -0.140625 C 1.269531 -0.148438 1.351562 -0.164062 1.4375 -0.1875 L 1.40625 0.125 C 1.3125 0.144531 1.226562 0.15625 1.15625 0.15625 C 1.082031 0.164062 1 0.164062 0.90625 0.15625 C 0.738281 0.132812 0.601562 0.078125 0.5 -0.015625 C 0.394531 -0.109375 0.320312 -0.222656 0.28125 -0.359375 C 0.238281 -0.503906 0.234375 -0.664062 0.265625 -0.84375 C 0.285156 -1.007812 0.335938 -1.15625 0.421875 -1.28125 C 0.503906 -1.40625 0.609375 -1.5 0.734375 -1.5625 C 0.867188 -1.625 1.019531 -1.644531 1.1875 -1.625 C 1.28125 -1.601562 1.363281 -1.578125 1.4375 -1.546875 C 1.519531 -1.515625 1.601562 -1.472656 1.6875 -1.421875 L 1.515625 -1.140625 C 1.453125 -1.179688 1.390625 -1.21875 1.328125 -1.25 C 1.265625 -1.28125 1.203125 -1.300781 1.140625 -1.3125 Z M 1.140625 -1.3125 "/></g></g></g><g fill="rgb(3.529358%, 19.999695%, 24.708557%)" fill-opacity="1"><g transform="translate(52.154112, 54.373762)"><g><path d="M 1.890625 -0.640625 C 1.867188 -0.460938 1.820312 -0.3125 1.75 -0.1875 C 1.675781 -0.0625 1.570312 0.03125 1.4375 0.09375 C 1.300781 0.15625 1.140625 0.175781 0.953125 0.15625 C 0.773438 0.132812 0.628906 0.078125 0.515625 -0.015625 C 0.398438 -0.109375 0.320312 -0.226562 0.28125 -0.375 C 0.238281 -0.519531 0.226562 -0.679688 0.25 -0.859375 C 0.269531 -1.023438 0.316406 -1.171875 0.390625 -1.296875 C 0.472656 -1.421875 0.578125 -1.507812 0.703125 -1.5625 C 0.835938 -1.625 0.992188 -1.644531 1.171875 -1.625 C 1.359375 -1.601562 1.507812 -1.546875 1.625 -1.453125 C 1.75 -1.367188 1.828125 -1.253906 1.859375 -1.109375 C 1.898438 -0.960938 1.910156 -0.804688 1.890625 -0.640625 Z M 0.640625 -0.8125 C 0.617188 -0.625 0.632812 -0.472656 0.6875 -0.359375 C 0.738281 -0.242188 0.835938 -0.175781 0.984375 -0.15625 C 1.140625 -0.132812 1.257812 -0.171875 1.34375 -0.265625 C 1.425781 -0.359375 1.476562 -0.5 1.5 -0.6875 C 1.519531 -0.851562 1.503906 -0.992188 1.453125 -1.109375 C 1.398438 -1.222656 1.296875 -1.289062 1.140625 -1.3125 C 0.992188 -1.332031 0.878906 -1.296875 0.796875 -1.203125 C 0.710938 -1.109375 0.660156 -0.976562 0.640625 -0.8125 Z M 0.640625 -0.8125 "/></g></g></g><g fill="rgb(3.529358%, 19.999695%, 24.708557%)" fill-opacity="1"><g transform="translate(54.087442, 54.624258)"><g><path d="M 0.953125 0.109375 L 0.6875 -1.28125 C 0.6875 -1.25 0.679688 -1.203125 0.671875 -1.140625 C 0.660156 -1.085938 0.65625 -1.019531 0.65625 -0.9375 C 0.65625 -0.863281 0.648438 -0.800781 0.640625 -0.75 L 0.546875 0.0625 L 0.21875 0.03125 L 0.421875 -1.6875 L 0.921875 -1.640625 L 1.1875 -0.28125 L 1.765625 -1.53125 L 2.265625 -1.484375 L 2.0625 0.234375 L 1.71875 0.203125 L 1.8125 -0.625 C 1.820312 -0.675781 1.832031 -0.738281 1.84375 -0.8125 C 1.851562 -0.882812 1.863281 -0.945312 1.875 -1 C 1.882812 -1.0625 1.890625 -1.109375 1.890625 -1.140625 L 1.28125 0.15625 Z M 0.953125 0.109375 "/></g></g></g><g fill="rgb(3.529358%, 19.999695%, 24.708557%)" fill-opacity="1"><g transform="translate(56.378668, 54.88825)"><g><path d="M 1.21875 0.125 L 0.21875 0.015625 L 0.40625 -1.703125 L 1.40625 -1.59375 L 1.375 -1.296875 L 0.75 -1.359375 L 0.703125 -1 L 1.28125 -0.9375 L 1.25 -0.625 L 0.671875 -0.6875 L 0.625 -0.25 L 1.25 -0.1875 Z M 1.21875 0.125 "/></g></g></g><g fill="rgb(3.529358%, 19.999695%, 24.708557%)" fill-opacity="1"><g transform="translate(58.935822, 55.148715)"><g><path d="M 1.296875 -0.375 C 1.273438 -0.21875 1.203125 -0.0976562 1.078125 -0.015625 C 0.960938 0.0664062 0.804688 0.101562 0.609375 0.09375 C 0.421875 0.0703125 0.253906 0.0195312 0.109375 -0.0625 L 0.140625 -0.40625 C 0.222656 -0.375 0.304688 -0.335938 0.390625 -0.296875 C 0.484375 -0.253906 0.578125 -0.226562 0.671875 -0.21875 C 0.753906 -0.21875 0.816406 -0.234375 0.859375 -0.265625 C 0.898438 -0.296875 0.925781 -0.335938 0.9375 -0.390625 C 0.9375 -0.429688 0.921875 -0.46875 0.890625 -0.5 C 0.867188 -0.53125 0.832031 -0.5625 0.78125 -0.59375 C 0.726562 -0.625 0.671875 -0.660156 0.609375 -0.703125 C 0.566406 -0.722656 0.523438 -0.75 0.484375 -0.78125 C 0.441406 -0.8125 0.398438 -0.847656 0.359375 -0.890625 C 0.328125 -0.941406 0.296875 -0.992188 0.265625 -1.046875 C 0.242188 -1.109375 0.234375 -1.175781 0.234375 -1.25 C 0.253906 -1.40625 0.320312 -1.519531 0.4375 -1.59375 C 0.550781 -1.675781 0.695312 -1.710938 0.875 -1.703125 C 0.96875 -1.691406 1.054688 -1.671875 1.140625 -1.640625 C 1.222656 -1.617188 1.300781 -1.582031 1.375 -1.53125 L 1.25 -1.265625 C 1.164062 -1.296875 1.09375 -1.320312 1.03125 -1.34375 C 0.96875 -1.363281 0.898438 -1.378906 0.828125 -1.390625 C 0.765625 -1.390625 0.710938 -1.375 0.671875 -1.34375 C 0.640625 -1.320312 0.617188 -1.285156 0.609375 -1.234375 C 0.609375 -1.171875 0.628906 -1.117188 0.671875 -1.078125 C 0.722656 -1.035156 0.804688 -0.984375 0.921875 -0.921875 C 0.992188 -0.878906 1.0625 -0.828125 1.125 -0.765625 C 1.1875 -0.710938 1.234375 -0.65625 1.265625 -0.59375 C 1.296875 -0.539062 1.304688 -0.46875 1.296875 -0.375 Z M 1.296875 -0.375 "/></g></g></g><g fill="rgb(3.529358%, 19.999695%, 24.708557%)" fill-opacity="1"><g transform="translate(60.279283, 55.270025)"><g><path d="M 1.21875 0.09375 L 0.21875 0.015625 L 0.359375 -1.71875 L 1.359375 -1.640625 L 1.34375 -1.34375 L 0.71875 -1.390625 L 0.6875 -1.015625 L 1.265625 -0.96875 L 1.234375 -0.65625 L 0.65625 -0.703125 L 0.625 -0.265625 L 1.25 -0.21875 Z M 1.21875 0.09375 "/></g></g></g><g fill="rgb(3.529358%, 19.999695%, 24.708557%)" fill-opacity="1"><g transform="translate(61.645581, 55.382393)"><g><path d="M 1.21875 0.09375 L 0.21875 0.015625 L 0.34375 -1.71875 L 1.34375 -1.640625 L 1.328125 -1.34375 L 0.703125 -1.390625 L 0.671875 -1.015625 L 1.25 -0.96875 L 1.234375 -0.65625 L 0.65625 -0.703125 L 0.609375 -0.265625 L 1.234375 -0.21875 Z M 1.21875 0.09375 "/></g></g></g><g fill="rgb(3.529358%, 19.999695%, 24.708557%)" fill-opacity="1"><g transform="translate(64.211727, 55.566363)"><g><path d="M 2.453125 -1.609375 L 1.90625 0.109375 L 1.5 0.078125 L 1.296875 -0.859375 C 1.296875 -0.867188 1.296875 -0.890625 1.296875 -0.921875 C 1.296875 -0.960938 1.289062 -1.003906 1.28125 -1.046875 C 1.269531 -1.085938 1.265625 -1.125 1.265625 -1.15625 C 1.265625 -1.195312 1.257812 -1.234375 1.25 -1.265625 C 1.25 -1.234375 1.242188 -1.195312 1.234375 -1.15625 C 1.222656 -1.125 1.210938 -1.085938 1.203125 -1.046875 C 1.191406 -1.003906 1.179688 -0.960938 1.171875 -0.921875 C 1.160156 -0.890625 1.148438 -0.863281 1.140625 -0.84375 L 0.859375 0.046875 L 0.4375 0.03125 L 0.09375 -1.734375 L 0.453125 -1.71875 L 0.625 -0.765625 C 0.632812 -0.722656 0.644531 -0.671875 0.65625 -0.609375 C 0.664062 -0.554688 0.671875 -0.5 0.671875 -0.4375 C 0.671875 -0.382812 0.675781 -0.335938 0.6875 -0.296875 C 0.6875 -0.335938 0.691406 -0.382812 0.703125 -0.4375 C 0.722656 -0.488281 0.738281 -0.539062 0.75 -0.59375 C 0.769531 -0.644531 0.785156 -0.6875 0.796875 -0.71875 L 1.09375 -1.671875 L 1.453125 -1.65625 L 1.65625 -0.671875 C 1.664062 -0.640625 1.671875 -0.597656 1.671875 -0.546875 C 1.679688 -0.492188 1.6875 -0.4375 1.6875 -0.375 C 1.6875 -0.320312 1.691406 -0.273438 1.703125 -0.234375 C 1.703125 -0.273438 1.707031 -0.320312 1.71875 -0.375 C 1.738281 -0.4375 1.757812 -0.492188 1.78125 -0.546875 C 1.800781 -0.609375 1.8125 -0.660156 1.8125 -0.703125 L 2.09375 -1.625 Z M 2.453125 -1.609375 "/></g></g></g><g fill="rgb(3.529358%, 19.999695%, 24.708557%)" fill-opacity="1"><g transform="translate(66.574256, 55.6973)"><g><path d="M 1.640625 0.078125 L 1.28125 0.0625 L 1.3125 -0.6875 L 0.625 -0.71875 L 0.59375 0.03125 L 0.21875 0.015625 L 0.296875 -1.71875 L 0.671875 -1.703125 L 0.640625 -1.03125 L 1.328125 -1 L 1.359375 -1.671875 L 1.71875 -1.65625 Z M 1.640625 0.078125 "/></g></g></g><g fill="rgb(3.529358%, 19.999695%, 24.708557%)" fill-opacity="1"><g transform="translate(68.444501, 55.778006)"><g><path d="M 0.796875 -1 L 1.1875 -1.703125 L 1.578125 -1.6875 L 0.953125 -0.640625 L 0.9375 0.03125 L 0.578125 0.015625 L 0.59375 -0.65625 L 0.0625 -1.734375 L 0.46875 -1.71875 Z M 0.796875 -1 "/></g></g></g><g fill="rgb(3.529358%, 19.999695%, 24.708557%)" fill-opacity="1"><g transform="translate(71.170025, 55.859774)"><g><path d="M 1.21875 0.015625 L 0.21875 0 L 0.25 -1.734375 L 1.25 -1.71875 L 1.25 -1.421875 L 0.625 -1.421875 L 0.609375 -1.046875 L 1.1875 -1.046875 L 1.1875 -0.734375 L 0.609375 -0.734375 L 0.59375 -0.296875 L 1.21875 -0.296875 Z M 1.21875 0.015625 "/></g></g></g><g fill="rgb(3.529358%, 19.999695%, 24.708557%)" fill-opacity="1"><g transform="translate(72.541213, 55.885068)"><g><path d="M 1.59375 -1.71875 L 0.984375 0.015625 L 0.59375 0 L 0.015625 -1.734375 L 0.390625 -1.734375 L 0.703125 -0.703125 C 0.703125 -0.679688 0.707031 -0.644531 0.71875 -0.59375 C 0.738281 -0.550781 0.753906 -0.503906 0.765625 -0.453125 C 0.773438 -0.398438 0.785156 -0.359375 0.796875 -0.328125 C 0.796875 -0.359375 0.800781 -0.394531 0.8125 -0.4375 C 0.832031 -0.488281 0.847656 -0.535156 0.859375 -0.578125 C 0.867188 -0.628906 0.875 -0.664062 0.875 -0.6875 L 1.234375 -1.71875 Z M 1.59375 -1.71875 "/></g></g></g><g fill="rgb(3.529358%, 19.999695%, 24.708557%)" fill-opacity="1"><g transform="translate(74.131875, 55.899574)"><g><path d="M 1.21875 0 L 0.21875 0 L 0.21875 -1.734375 L 1.21875 -1.734375 L 1.21875 -1.4375 L 0.59375 -1.4375 L 0.59375 -1.0625 L 1.171875 -1.0625 L 1.171875 -0.75 L 0.59375 -0.75 L 0.59375 -0.3125 L 1.21875 -0.3125 Z M 1.21875 0 "/></g></g></g><g fill="rgb(3.529358%, 19.999695%, 24.708557%)" fill-opacity="1"><g transform="translate(75.503344, 55.901106)"><g><path d="M 0.703125 -1.734375 C 0.941406 -1.742188 1.117188 -1.707031 1.234375 -1.625 C 1.347656 -1.539062 1.40625 -1.410156 1.40625 -1.234375 C 1.40625 -1.148438 1.390625 -1.078125 1.359375 -1.015625 C 1.335938 -0.960938 1.300781 -0.914062 1.25 -0.875 C 1.207031 -0.832031 1.15625 -0.800781 1.09375 -0.78125 L 1.609375 -0.015625 L 1.203125 -0.015625 L 0.78125 -0.671875 L 0.59375 -0.671875 L 0.59375 0 L 0.21875 0 L 0.203125 -1.734375 Z M 0.6875 -1.4375 L 0.578125 -1.4375 L 0.59375 -0.96875 L 0.703125 -0.96875 C 0.828125 -0.96875 0.910156 -0.988281 0.953125 -1.03125 C 1.003906 -1.082031 1.03125 -1.144531 1.03125 -1.21875 C 1.03125 -1.300781 1 -1.359375 0.9375 -1.390625 C 0.882812 -1.421875 0.800781 -1.4375 0.6875 -1.4375 Z M 0.6875 -1.4375 "/></g></g></g><g fill="rgb(3.529358%, 19.999695%, 24.708557%)" fill-opacity="1"><g transform="translate(77.118809, 55.887956)"><g><path d="M 0.75 -1.046875 L 1.09375 -1.75 L 1.484375 -1.765625 L 0.921875 -0.6875 L 0.9375 -0.015625 L 0.578125 -0.015625 L 0.5625 -0.6875 L -0.03125 -1.734375 L 0.375 -1.734375 Z M 0.75 -1.046875 "/></g></g></g><g fill="rgb(3.529358%, 19.999695%, 24.708557%)" fill-opacity="1"><g transform="translate(78.647149, 55.862664)"><g><path d="M 1.765625 -0.921875 C 1.773438 -0.742188 1.753906 -0.585938 1.703125 -0.453125 C 1.648438 -0.316406 1.5625 -0.207031 1.4375 -0.125 C 1.3125 -0.0390625 1.15625 0 0.96875 0 C 0.78125 0.0078125 0.625 -0.0195312 0.5 -0.09375 C 0.375 -0.175781 0.28125 -0.28125 0.21875 -0.40625 C 0.15625 -0.539062 0.117188 -0.695312 0.109375 -0.875 C 0.109375 -1.050781 0.132812 -1.207031 0.1875 -1.34375 C 0.238281 -1.488281 0.328125 -1.597656 0.453125 -1.671875 C 0.578125 -1.742188 0.734375 -1.785156 0.921875 -1.796875 C 1.109375 -1.796875 1.265625 -1.757812 1.390625 -1.6875 C 1.515625 -1.625 1.609375 -1.523438 1.671875 -1.390625 C 1.734375 -1.253906 1.765625 -1.097656 1.765625 -0.921875 Z M 0.5 -0.890625 C 0.507812 -0.703125 0.550781 -0.554688 0.625 -0.453125 C 0.695312 -0.347656 0.8125 -0.300781 0.96875 -0.3125 C 1.125 -0.3125 1.234375 -0.363281 1.296875 -0.46875 C 1.359375 -0.570312 1.382812 -0.71875 1.375 -0.90625 C 1.375 -1.082031 1.335938 -1.222656 1.265625 -1.328125 C 1.191406 -1.429688 1.078125 -1.484375 0.921875 -1.484375 C 0.765625 -1.472656 0.65625 -1.414062 0.59375 -1.3125 C 0.53125 -1.207031 0.5 -1.066406 0.5 -0.890625 Z M 0.5 -0.890625 "/></g></g></g><g fill="rgb(3.529358%, 19.999695%, 24.708557%)" fill-opacity="1"><g transform="translate(80.595174, 55.809324)"><g><path d="M 1.765625 -0.0625 L 1.296875 -0.046875 L 0.484375 -1.328125 C 0.484375 -1.242188 0.488281 -1.160156 0.5 -1.078125 C 0.507812 -0.992188 0.515625 -0.910156 0.515625 -0.828125 L 0.546875 -0.015625 L 0.21875 -0.015625 L 0.15625 -1.75 L 0.625 -1.765625 L 1.421875 -0.5 L 1.4375 -0.5 C 1.425781 -0.582031 1.414062 -0.660156 1.40625 -0.734375 C 1.40625 -0.816406 1.40625 -0.898438 1.40625 -0.984375 L 1.375 -1.796875 L 1.703125 -1.796875 Z M 1.765625 -0.0625 "/></g></g></g><g fill="rgb(3.529358%, 19.999695%, 24.708557%)" fill-opacity="1"><g transform="translate(82.582472, 55.73034)"><g><path d="M 1.21875 -0.0625 L 0.21875 -0.015625 L 0.140625 -1.75 L 1.140625 -1.796875 L 1.15625 -1.5 L 0.53125 -1.46875 L 0.546875 -1.09375 L 1.125 -1.125 L 1.140625 -0.8125 L 0.5625 -0.78125 L 0.578125 -0.34375 L 1.203125 -0.375 Z M 1.21875 -0.0625 "/></g></g></g><g fill="rgb(3.529358%, 19.999695%, 24.708557%)" fill-opacity="1"><g transform="translate(85.148397, 55.595151)"><g><path d="M 0.875 -0.0625 L 0.078125 0 L 0.0625 -0.203125 L 0.28125 -0.328125 L 0.203125 -1.453125 L -0.015625 -1.53125 L -0.03125 -1.734375 L 0.765625 -1.796875 L 0.78125 -1.59375 L 0.5625 -1.484375 L 0.640625 -0.359375 L 0.859375 -0.265625 Z M 0.875 -0.0625 "/></g></g></g><g fill="rgb(3.529358%, 19.999695%, 24.708557%)" fill-opacity="1"><g transform="translate(86.099761, 55.536182)"><g><path d="M 1.21875 -0.578125 C 1.226562 -0.421875 1.175781 -0.289062 1.0625 -0.1875 C 0.957031 -0.0820312 0.804688 -0.0234375 0.609375 -0.015625 C 0.421875 0.00390625 0.253906 -0.015625 0.109375 -0.078125 L 0.078125 -0.421875 C 0.160156 -0.398438 0.25 -0.375 0.34375 -0.34375 C 0.4375 -0.320312 0.53125 -0.316406 0.625 -0.328125 C 0.707031 -0.328125 0.765625 -0.347656 0.796875 -0.390625 C 0.835938 -0.429688 0.859375 -0.476562 0.859375 -0.53125 C 0.859375 -0.570312 0.835938 -0.609375 0.796875 -0.640625 C 0.765625 -0.671875 0.722656 -0.695312 0.671875 -0.71875 C 0.617188 -0.738281 0.5625 -0.757812 0.5 -0.78125 C 0.457031 -0.800781 0.410156 -0.820312 0.359375 -0.84375 C 0.304688 -0.875 0.257812 -0.90625 0.21875 -0.9375 C 0.175781 -0.976562 0.132812 -1.023438 0.09375 -1.078125 C 0.0625 -1.140625 0.0390625 -1.207031 0.03125 -1.28125 C 0.0195312 -1.4375 0.0664062 -1.5625 0.171875 -1.65625 C 0.273438 -1.75 0.414062 -1.800781 0.59375 -1.8125 C 0.6875 -1.820312 0.773438 -1.816406 0.859375 -1.796875 C 0.941406 -1.785156 1.03125 -1.757812 1.125 -1.71875 L 1.03125 -1.4375 C 0.945312 -1.457031 0.875 -1.472656 0.8125 -1.484375 C 0.75 -1.503906 0.679688 -1.507812 0.609375 -1.5 C 0.546875 -1.5 0.492188 -1.476562 0.453125 -1.4375 C 0.421875 -1.40625 0.40625 -1.363281 0.40625 -1.3125 C 0.414062 -1.25 0.445312 -1.203125 0.5 -1.171875 C 0.550781 -1.140625 0.640625 -1.101562 0.765625 -1.0625 C 0.847656 -1.019531 0.921875 -0.976562 0.984375 -0.9375 C 1.046875 -0.894531 1.097656 -0.847656 1.140625 -0.796875 C 1.179688 -0.742188 1.207031 -0.671875 1.21875 -0.578125 Z M 1.21875 -0.578125 "/></g></g></g><g fill="rgb(3.529358%, 19.999695%, 24.708557%)" fill-opacity="1"><g transform="translate(88.64139, 55.350502)"><g><path d="M 1.203125 -0.59375 C 1.222656 -0.4375 1.175781 -0.304688 1.0625 -0.203125 C 0.957031 -0.0976562 0.804688 -0.0351562 0.609375 -0.015625 C 0.421875 -0.00390625 0.253906 -0.03125 0.109375 -0.09375 L 0.078125 -0.4375 C 0.160156 -0.40625 0.242188 -0.378906 0.328125 -0.359375 C 0.421875 -0.335938 0.515625 -0.328125 0.609375 -0.328125 C 0.691406 -0.335938 0.753906 -0.363281 0.796875 -0.40625 C 0.835938 -0.445312 0.851562 -0.492188 0.84375 -0.546875 C 0.84375 -0.585938 0.828125 -0.617188 0.796875 -0.640625 C 0.765625 -0.671875 0.71875 -0.695312 0.65625 -0.71875 C 0.601562 -0.738281 0.546875 -0.765625 0.484375 -0.796875 C 0.441406 -0.816406 0.394531 -0.835938 0.34375 -0.859375 C 0.289062 -0.878906 0.242188 -0.90625 0.203125 -0.9375 C 0.160156 -0.976562 0.117188 -1.023438 0.078125 -1.078125 C 0.046875 -1.140625 0.0234375 -1.207031 0.015625 -1.28125 C 0.00390625 -1.4375 0.046875 -1.5625 0.140625 -1.65625 C 0.242188 -1.75 0.382812 -1.804688 0.5625 -1.828125 C 0.65625 -1.835938 0.742188 -1.832031 0.828125 -1.8125 C 0.921875 -1.800781 1.007812 -1.78125 1.09375 -1.75 L 1.015625 -1.453125 C 0.921875 -1.472656 0.84375 -1.488281 0.78125 -1.5 C 0.71875 -1.507812 0.648438 -1.515625 0.578125 -1.515625 C 0.515625 -1.503906 0.46875 -1.484375 0.4375 -1.453125 C 0.40625 -1.421875 0.390625 -1.378906 0.390625 -1.328125 C 0.398438 -1.265625 0.429688 -1.21875 0.484375 -1.1875 C 0.535156 -1.15625 0.625 -1.113281 0.75 -1.0625 C 0.832031 -1.03125 0.90625 -0.992188 0.96875 -0.953125 C 1.039062 -0.910156 1.097656 -0.863281 1.140625 -0.8125 C 1.179688 -0.757812 1.203125 -0.6875 1.203125 -0.59375 Z M 1.203125 -0.59375 "/></g></g></g><g fill="rgb(3.529358%, 19.999695%, 24.708557%)" fill-opacity="1"><g transform="translate(89.987873, 55.239197)"><g><path d="M 0.953125 -0.09375 L 0.40625 -1.40625 C 0.40625 -1.375 0.40625 -1.328125 0.40625 -1.265625 C 0.414062 -1.203125 0.425781 -1.128906 0.4375 -1.046875 C 0.457031 -0.972656 0.46875 -0.910156 0.46875 -0.859375 L 0.546875 -0.046875 L 0.21875 -0.015625 L 0.046875 -1.734375 L 0.546875 -1.78125 L 1.109375 -0.515625 L 1.40625 -1.875 L 1.890625 -1.921875 L 2.0625 -0.203125 L 1.71875 -0.171875 L 1.640625 -1 C 1.628906 -1.050781 1.625 -1.113281 1.625 -1.1875 C 1.625 -1.257812 1.617188 -1.328125 1.609375 -1.390625 C 1.609375 -1.453125 1.609375 -1.5 1.609375 -1.53125 L 1.296875 -0.125 Z M 0.953125 -0.09375 "/></g></g></g><g fill="rgb(3.529358%, 19.999695%, 24.708557%)" fill-opacity="1"><g transform="translate(92.282587, 55.017046)"><g><path d="M 0.875 -0.09375 L 0.078125 -0.015625 L 0.0625 -0.21875 L 0.265625 -0.34375 L 0.140625 -1.453125 L -0.078125 -1.53125 L -0.109375 -1.734375 L 0.6875 -1.8125 L 0.71875 -1.609375 L 0.5 -1.484375 L 0.625 -0.375 L 0.859375 -0.296875 Z M 0.875 -0.09375 "/></g></g></g><g fill="rgb(3.529358%, 19.999695%, 24.708557%)" fill-opacity="1"><g transform="translate(93.230718, 54.918183)"><g><path d="M 0.21875 -0.03125 L 0.03125 -1.75 L 0.40625 -1.78125 L 0.5625 -0.375 L 1.25 -0.453125 L 1.28125 -0.140625 Z M 0.21875 -0.03125 "/></g></g></g><g fill="rgb(3.529358%, 19.999695%, 24.708557%)" fill-opacity="1"><g transform="translate(94.604224, 54.763718)"><g><path d="M 0.875 -0.109375 L 0.078125 -0.015625 L 0.046875 -0.21875 L 0.265625 -0.34375 L 0.125 -1.453125 L -0.109375 -1.53125 L -0.125 -1.734375 L 0.671875 -1.828125 L 0.6875 -1.625 L 0.484375 -1.5 L 0.625 -0.390625 L 0.84375 -0.3125 Z M 0.875 -0.109375 "/></g></g></g><g fill="rgb(3.529358%, 19.999695%, 24.708557%)" fill-opacity="1"><g transform="translate(95.552477, 54.653296)"><g><path d="M 1.75 -0.21875 L 1.28125 -0.171875 L 0.359375 -1.359375 C 0.367188 -1.273438 0.378906 -1.191406 0.390625 -1.109375 C 0.410156 -1.035156 0.425781 -0.957031 0.4375 -0.875 L 0.546875 -0.0625 L 0.21875 -0.03125 L 0 -1.75 L 0.46875 -1.8125 L 1.359375 -0.625 L 1.375 -0.625 C 1.351562 -0.707031 1.335938 -0.785156 1.328125 -0.859375 C 1.328125 -0.941406 1.320312 -1.023438 1.3125 -1.109375 L 1.203125 -1.90625 L 1.53125 -1.9375 Z M 1.75 -0.21875 "/></g></g></g><g fill="rgb(3.529358%, 19.999695%, 24.708557%)" fill-opacity="1"><g transform="translate(97.526174, 54.400841)"><g><path d="M 0.71875 -1.09375 L 1.40625 -1.1875 L 1.53125 -0.296875 C 1.457031 -0.253906 1.367188 -0.210938 1.265625 -0.171875 C 1.171875 -0.140625 1.0625 -0.113281 0.9375 -0.09375 C 0.6875 -0.0625 0.476562 -0.113281 0.3125 -0.25 C 0.15625 -0.382812 0.0546875 -0.59375 0.015625 -0.875 C -0.00390625 -1.050781 0.00390625 -1.210938 0.046875 -1.359375 C 0.0976562 -1.503906 0.1875 -1.625 0.3125 -1.71875 C 0.445312 -1.8125 0.601562 -1.867188 0.78125 -1.890625 C 0.875 -1.898438 0.96875 -1.898438 1.0625 -1.890625 C 1.15625 -1.890625 1.238281 -1.878906 1.3125 -1.859375 L 1.25 -1.546875 C 1.1875 -1.566406 1.117188 -1.578125 1.046875 -1.578125 C 0.972656 -1.585938 0.898438 -1.585938 0.828125 -1.578125 C 0.722656 -1.566406 0.632812 -1.53125 0.5625 -1.46875 C 0.5 -1.414062 0.453125 -1.34375 0.421875 -1.25 C 0.390625 -1.15625 0.378906 -1.046875 0.390625 -0.921875 C 0.410156 -0.816406 0.441406 -0.722656 0.484375 -0.640625 C 0.523438 -0.554688 0.582031 -0.492188 0.65625 -0.453125 C 0.738281 -0.410156 0.828125 -0.398438 0.921875 -0.421875 C 0.972656 -0.421875 1.015625 -0.425781 1.046875 -0.4375 C 1.078125 -0.445312 1.109375 -0.460938 1.140625 -0.484375 L 1.09375 -0.84375 L 0.765625 -0.796875 Z M 0.71875 -1.09375 "/></g></g></g></svg>